<svg xmlns="http://www.w3.org/2000/svg" width="148" height="148" viewBox="0 0 148 148" style=""><path d="M46.5,0,86.77,23.5v47L46.5,94,6.23,70.5v-47Z" transform="translate(21 20)" fill="#fff"/><path d="M43.271,104h0L0,77.783.218,25.794,43.728,0,87,26.194l-.219,51.988L43.271,104ZM59.262,55.637V88L81,75.5V32L43.178,53.008l-.048-.1-.046.1L6,32.4V75.5L27.742,88V55.838l15.727,8.753Z" transform="translate(24 15)" fill="#424242"/><path d="M0,12.052,19.5,0,63.538,26.046,64,79,44.595,91l-.477-52.852" transform="translate(71)" fill="#dc139c"/><path d="M64,12.052,44.5,0,.466,26.046,0,79,19.409,91l.475-52.852" fill="#fb8b00"/><path d="M0,.2.08,23.8,44.132,50,88,23.484,87.922,0,44.137,26.449" transform="translate(23 98)" fill="#0169c9"/></svg>
